#!OML:ASF F:\VICON\USERDATA\INSTALL\rory3\rory3.ASF
:FULLY-SPECIFIED
:DEGREES
2677
root 0.861645 11.5326 -7.4055 -2.60089 -0.855931 1.02065
lowerback 39.0391 1.52378 -2.18183
upperback 16.0459 1.11098 0.393318
thorax -1.25436 0.402533 1.16562
lowerneck -2.65124 -0.23634 -5.92631
upperneck 18.2135 -0.452828 4.00106
head 5.95232 -0.32254 2.23297
rclavicle 1.42131e-014 -7.85199e-015
rhumerus -31.5095 30.5507 -86.5788
rradius 57.9706
rwrist -28.7922
rhand -26.0232 7.92777
rfingers 7.12502
rthumb 0.523339 -22.0513
lclavicle 1.42131e-014 -7.85199e-015
lhumerus -40.4222 -34.7454 96.29
lradius 53.9775
lwrist 14.3917
lhand -28.6092 18.6817
lfingers 7.12502
lthumb -1.97432 48.6523
rfemur -66.6424 -14.4616 -9.93639
rtibia 98.9525
rfoot -22.704 0.353329
rtoes -24.2629
lfemur -64.7475 24.1635 1.75888
ltibia 105.724
lfoot -26.9123 -9.44445
ltoes -24.1858
2678
root 0.870366 11.4728 -7.4059 -3.17661 -0.972496 1.11986
lowerback 38.9905 1.50254 -2.30415
upperback 16.1337 1.04269 0.393813
thorax -1.14103 0.359449 1.25343
lowerneck -2.75405 -0.204025 -6.14519
upperneck 18.1197 -0.387727 4.02328
head 5.938 -0.302793 2.27962
rclavicle -2.98177e-016 1.19271e-015
rhumerus -31.788 30.9943 -86.6972
rradius 58.1988
rwrist -29.1863
rhand -25.7842 7.16814
rfingers 7.12502
rthumb 0.754202 -22.8103
lclavicle -2.98177e-016 1.19271e-015
lhumerus -41.1813 -34.7497 96.7483
lradius 54.4321
lwrist 14.7134
lhand -28.0864 20.2158
lfingers 7.12502
lthumb -1.4694 50.1905
rfemur -66.4578 -14.3515 -10.2628
rtibia 99.3501
rfoot -22.6935 0.405951
rtoes -24.2798
lfemur -64.3293 24.2715 1.97993
ltibia 106.237
lfoot -27.1204 -9.64086
ltoes -23.7586
2679
root 0.875489 11.4078 -7.41039 -3.69831 -1.07138 1.12478
lowerback 39.0072 1.49468 -2.31248
upperback 16.1472 1.02787 0.400633
thorax -1.13088 0.350008 1.26979
lowerneck -2.87766 -0.228524 -6.26149
upperneck 18.0706 -0.410523 4.0696
head 5.94546 -0.316762 2.31222
rclavicle 3.97569e-015 6.95746e-016
rhumerus -32.1743 31.2879 -86.8818
rradius 58.4665
rwrist -29.5504
rhand -26.122 6.60088
rfingers 7.12502
rthumb 0.427956 -23.3784
lclavicle 3.97569e-015 6.95746e-016
lhumerus -41.9093 -34.8317 97.1296
lradius 54.9032
lwrist 15.1537
lhand -27.3471 21.561
lfingers 7.12502
lthumb -0.755281 51.5394
rfemur -66.3853 -14.2543 -10.4425
rtibia 99.7698
rfoot -22.6766 0.634332
rtoes -24.3374
lfemur -64.0763 24.4238 2.2747
ltibia 106.756
lfoot -27.2942 -9.70703
ltoes -23.7629
2680
root 0.875262 11.3431 -7.42335 -4.1836 -1.14902 1.00931
lowerback 39.1043 1.53317 -2.17823
upperback 16.1137 1.11688 0.418665
thorax -1.2001 0.400144 1.18829
lowerneck -2.9146 -0.338078 -6.19252
upperneck 17.9229 -0.563353 4.09442
head 5.91332 -0.382142 2.29816
rclavicle -1.39149e-015 1.19271e-015
rhumerus -32.6217 31.2662 -87.1254
rradius 58.7551
rwrist -29.8358
rhand -28.04 8.387
rfingers 7.12502
rthumb -1.42457 -21.588
lclavicle -1.39149e-015 1.19271e-015
lhumerus -42.6752 -35.1591 97.4635
lradius 55.4436
lwrist 15.7843
lhand -27.0034 22.2665
lfingers 7.12502
lthumb -0.42342 52.2459
rfemur -66.3858 -14.1062 -10.4634
rtibia 100.21
rfoot -22.6868 1.03985
rtoes -24.075
lfemur -63.9539 24.5952 2.67136
ltibia 107.243
lfoot -27.4331 -9.59948
ltoes -24.4834
2681
root 0.874454 11.2816 -7.43651 -4.68069 -1.25422 0.699944
lowerback 39.689 1.55463 -2.10588
upperback 15.7226 1.15575 0.579321
thorax -1.81421 0.418708 1.29628
lowerneck -2.74747 -0.340446 -6.30771
upperneck 17.917 -0.556036 4.02737
head 5.88316 -0.392247 2.29626
rclavicle 1.98785e-015 -1.68967e-015
rhumerus -33.6551 31.7063 -87.5891
rradius 59.1028
rwrist -30.1286
rhand -27.1542 6.88026
rfingers 7.12502
rthumb -0.569009 -23.0987
lclavicle 1.98785e-015 -1.68967e-015
lhumerus -43.9938 -35.0637 98.1926
lradius 55.9969
lwrist 16.3244
lhand -26.926 22.6623
lfingers 7.12502
lthumb -0.348603 52.6418
rfemur -66.3418 -13.8476 -10.2661
rtibia 100.639
rfoot -22.699 1.3179
rtoes -23.6208
lfemur -63.7966 24.8503 3.32213
ltibia 107.707
lfoot -27.5365 -9.52434
ltoes -25.4344
2682
root 0.875588 11.2205 -7.44704 -5.06351 -1.23259 0.544264
lowerback 39.5642 1.45719 -2.05181
upperback 15.7552 1.06553 0.678884
thorax -1.74018 0.369985 1.40607
lowerneck -2.97601 -0.334901 -6.57894
upperneck 17.7989 -0.510712 4.03383
head 5.88456 -0.384645 2.34532
rclavicle -3.77691e-015 9.93923e-016
rhumerus -33.9676 32.2334 -87.7078
rradius 59.3605
rwrist -30.3794
rhand -27.436 6.77523
rfingers 7.12502
rthumb -0.841161 -23.2029
lclavicle -3.77691e-015 9.93923e-016
lhumerus -44.5939 -34.9192 98.546
lradius 56.4629
lwrist 16.6948
lhand -27.0367 22.6925
lfingers 7.12502
lthumb -0.455577 52.6717
rfemur -66.3207 -13.8289 -10.2714
rtibia 101.065
rfoot -22.6942 1.58035
rtoes -23.1888
lfemur -63.8109 24.956 3.71715
ltibia 108.178
lfoot -27.5875 -9.58278
ltoes -25.6105
2683
root 0.877358 11.1635 -7.45606 -5.45783 -1.11492 0.683525
lowerback 39.1123 1.38959 -2.13591
upperback 16.0202 0.969419 0.674763
thorax -1.30747 0.31451 1.48472
lowerneck -3.18977 -0.38628 -6.72638
upperneck 17.4542 -0.553686 4.06691
head 5.81638 -0.407173 2.37454
rclavicle 1.59028e-015 9.64106e-015
rhumerus -33.8691 32.4993 -87.66
rradius 59.5272
rwrist -30.6381
rhand -27.6112 6.67737
rfingers 7.12502
rthumb -1.01037 -23.3
lclavicle 1.59028e-015 9.64106e-015
lhumerus -44.9045 -35.0498 98.7101
lradius 56.8986
lwrist 17.0767
lhand -27.3514 22.4665
lfingers 7.12502
lthumb -0.759458 52.4449
rfemur -66.2131 -13.958 -10.6339
rtibia 101.428
rfoot -22.681 1.83741
rtoes -23.3105
lfemur -63.7884 24.8276 3.75543
ltibia 108.636
lfoot -27.6424 -9.74502
ltoes -25.1205
2684
root 0.882752 11.1168 -7.4553 -5.97363 -1.22472 0.859762
lowerback 38.8172 1.42131 -2.15935
upperback 16.2232 1.00144 0.572354
thorax -0.991378 0.330812 1.38312
lowerneck -3.37481 -0.495023 -6.66721
upperneck 17.2024 -0.689286 4.0643
head 5.77677 -0.464651 2.35341
rclavicle 3.18055e-015 7.15625e-015
rhumerus -33.9368 32.7512 -87.8258
rradius 59.5507
rwrist -31.0181
rhand -28.0538 6.55039
rfingers 7.12502
rthumb -1.43792 -23.4245
lclavicle 3.18055e-015 7.15625e-015
lhumerus -45.4378 -35.4094 98.9313
lradius 57.3036
lwrist 17.5318
lhand -27.7471 22.0108
lfingers 7.12502
lthumb -1.14164 51.9875
rfemur -66.0272 -13.785 -10.9995
rtibia 101.69
rfoot -22.6884 1.89476
rtoes -23.9514
lfemur -63.3546 24.8733 3.87286
ltibia 109.043
lfoot -27.8215 -9.85969
ltoes -24.898
2685
root 0.89042 11.0713 -7.45069 -6.39389 -1.53533 0.956739
lowerback 38.9145 1.49658 -1.98508
upperback 16.0538 1.13375 0.392561
thorax -1.20694 0.4179 1.05756
lowerneck -3.44578 -0.654219 -6.57869
upperneck 17.1673 -0.921772 4.16305
head 5.7904 -0.563089 2.35595
rclavicle 2.5842e-015 -2.5842e-015
rhumerus -34.5946 32.9046 -88.3987
rradius 59.5508
rwrist -31.3677
rhand -28.9712 6.85631
rfingers 7.12502
rthumb -2.32388 -23.1108
lclavicle 2.5842e-015 -2.5842e-015
lhumerus -46.4741 -35.7367 99.2903
lradius 57.7963
lwrist 17.8394
lhand -27.867 21.7373
lfingers 7.12502
lthumb -1.25748 51.7134
rfemur -66.0749 -13.43 -11.2174
rtibia 101.95
rfoot -22.6733 1.95742
rtoes -24.2077
lfemur -62.9299 25.225 4.07717
ltibia 109.44
lfoot -28.0712 -9.75841
ltoes -25.2504
2686
root 0.894512 11.0231 -7.45391 -6.78505 -1.65481 1.06246
lowerback 38.816 1.52795 -1.99856
upperback 16.0597 1.16514 0.341642
thorax -1.16989 0.43498 1.00175
lowerneck -3.47535 -0.773896 -6.74599
upperneck 16.8186 -1.0836 4.31336
head 5.69682 -0.637838 2.41868
rclavicle 9.34288e-015 -8.94531e-016
rhumerus -34.9618 33.1001 -88.6608
rradius 59.7567
rwrist -31.5623
rhand -29.8418 6.51354
rfingers 7.12502
rthumb -3.16467 -23.4427
lclavicle 9.34288e-015 -8.94531e-016
lhumerus -47.0474 -35.8418 99.451
lradius 58.3075
lwrist 18.1195
lhand -27.6056 21.7809
lfingers 7.12502
lthumb -1.00503 51.7583
rfemur -66.0633 -13.2412 -11.4917
rtibia 102.218
rfoot -22.6344 2.16438
rtoes -23.7401
lfemur -62.7133 25.3801 4.19596
ltibia 109.84
lfoot -28.2391 -9.70301
ltoes -25.2484
2687
root 0.895593 10.9705 -7.45992 -7.19655 -1.64696 1.18311
lowerback 38.6808 1.50714 -2.07589
upperback 16.1015 1.11842 0.35385
thorax -1.08163 0.406476 1.07207
lowerneck -3.51977 -0.844095 -7.00505
upperneck 16.4532 -1.15417 4.36926
head 5.59677 -0.680107 2.47196
rclavicle 6.65929e-015 -9.93923e-016
rhumerus -35.3007 33.3053 -88.7947
rradius 60.0969
rwrist -31.6312
rhand -30.5447 5.67958
rfingers 7.12502
rthumb -3.8435 -24.2655
lclavicle 6.65929e-015 -9.93923e-016
lhumerus -47.587 -35.9072 99.7204
lradius 58.7651
lwrist 18.4759
lhand -27.5252 21.7059
lfingers 7.12502
lthumb -0.92733 51.6836
rfemur -65.9719 -13.201 -11.8199
rtibia 102.509
rfoot -22.6068 2.45142
rtoes -23.2617
lfemur -62.5575 25.3982 4.31258
ltibia 110.256
lfoot -28.2765 -9.92541
ltoes -24.7838
2688
root 0.896235 10.9148 -7.46624 -7.54039 -1.66236 1.24514
lowerback 38.5166 1.49925 -2.07181
upperback 16.1094 1.11578 0.371905
thorax -1.02261 0.404254 1.09189
lowerneck -3.7145 -0.944015 -7.15481
upperneck 16.196 -1.25435 4.34977
head 5.5576 -0.734186 2.48215
rclavicle -4.77083e-015 1.88845e-015
rhumerus -35.6735 33.4011 -88.9353
rradius 60.4249
rwrist -31.7625
rhand -31.0203 5.49328
rfingers 7.12502
rthumb -4.30273 -24.443
lclavicle -4.77083e-015 1.88845e-015
lhumerus -48.2324 -36.0028 100.049
lradius 59.249
lwrist 18.6694
lhand -27.8144 21.5427
lfingers 7.12502
lthumb -1.20666 51.5191
rfemur -66.0148 -13.2037 -12.0435
rtibia 102.847
rfoot -22.5797 2.681
rtoes -23.4779
lfemur -62.4996 25.5193 4.48869
ltibia 110.676
lfoot -28.2768 -10.1789
ltoes -24.4894
2689
root 0.898439 10.8671 -7.47301 -7.88481 -1.66087 1.29211
lowerback 38.4647 1.48173 -1.99425
upperback 16.0456 1.12091 0.344632
thorax -1.07585 0.414159 1.02159
lowerneck -3.84739 -1.09162 -7.24246
upperneck 15.9055 -1.44167 4.42199
head 5.5024 -0.820931 2.50566
rclavicle 7.65321e-015 7.95139e-016
rhumerus -36.1638 33.3945 -89.2154
rradius 60.754
rwrist -31.966
rhand -31.5255 5.49595
rfingers 7.12502
rthumb -4.7906 -24.4299
lclavicle 7.65321e-015 7.95139e-016
lhumerus -49.0145 -36.0587 100.327
lradius 59.8006
lwrist 18.5939
lhand -28.1238 21.3585
lfingers 7.12502
lthumb -1.50551 51.333
rfemur -65.9884 -13.1871 -12.2441
rtibia 103.158
rfoot -22.5569 3.01857
rtoes -23.0598
lfemur -62.4148 25.5999 4.62641
ltibia 111.053
lfoot -28.3914 -10.1604
ltoes -24.5936
2690
root 0.902513 10.8235 -7.48001 -8.19123 -1.64688 1.50408
lowerback 38.339 1.49532 -2.08928
upperback 16.0026 1.10816 0.316651
thorax -1.08394 0.405743 1.04659
lowerneck -3.95261 -1.2411 -7.4355
upperneck 15.5342 -1.62531 4.5182
head 5.41873 -0.909942 2.55385
rclavicle 1.39149e-015 -5.46658e-015
rhumerus -36.551 33.5492 -89.4462
rradius 60.92
rwrist -32.2659
rhand -32.4515 6.09347
rfingers 7.12502
rthumb -5.68464 -23.8103
lclavicle 1.39149e-015 -5.46658e-015
lhumerus -49.703 -36.1076 100.597
lradius 60.3547
lwrist 18.6806
lhand -28.0899 21.3898
lfingers 7.12502
lthumb -1.47278 51.3645
rfemur -65.9599 -13.2189 -12.6516
rtibia 103.439
rfoot -22.487 3.42526
rtoes -22.1837
lfemur -62.3139 25.5791 4.51887
ltibia 111.392
lfoot -28.6111 -9.92098
ltoes -24.9855
2691
root 0.905657 10.7773 -7.48916 -8.48939 -1.65443 1.74784
lowerback 38.1567 1.53321 -2.26082
upperback 16.0199 1.10356 0.3358
thorax -1.00923 0.39307 1.15916
lowerneck -4.00253 -1.35728 -7.82227
upperneck 14.9386 -1.7602 4.71584
head 5.25625 -0.978011 2.66754
rclavicle 1.39149e-015 -5.96354e-016
rhumerus -36.7198 33.8512 -89.5347
rradius 60.9143
rwrist -32.6002
rhand -33.371 7.11953
rfingers 7.12502
rthumb -6.57238 -22.7585
lclavicle 1.39149e-015 -5.96354e-016
lhumerus -50.164 -36.1996 100.848
lradius 60.8665
lwrist 19.0836
lhand -27.6931 21.6935
lfingers 7.12502
lthumb -1.08951 51.6704
rfemur -65.9883 -13.2525 -13.0868
rtibia 103.716
rfoot -22.4001 3.69497
rtoes -21.8614
lfemur -62.2124 25.5704 4.40958
ltibia 111.713
lfoot -28.7304 -9.96184
ltoes -24.7066
